<?xml version="1.0" encoding="UTF-8"?><svg id="icon" xmlns="http://www.w3.org/2000/svg" xmlns:xlink="http://www.w3.org/1999/xlink" viewBox="0 0 324 324"><defs><style>.cls-1{fill:#369;}.cls-2,.cls-3{fill:#fff;}.cls-3{opacity:.75;}.cls-4{fill:url(#linear-gradient);}</style><linearGradient id="linear-gradient" x1="23.47" y1="162" x2="300.53" y2="162" gradientUnits="userSpaceOnUse"><stop offset="0" stop-color="#209d7d"/><stop offset="0" stop-color="#249f7f"/><stop offset=".05" stop-color="#57b59d"/><stop offset=".1" stop-color="#84c9b7"/><stop offset=".16" stop-color="#aad9cd"/><stop offset=".21" stop-color="#c9e7df"/><stop offset=".27" stop-color="#e0f1ed"/><stop offset=".33" stop-color="#f1f9f7"/><stop offset=".39" stop-color="#fbfdfd"/><stop offset=".47" stop-color="#fff"/><stop offset=".56" stop-color="#fbfdfd"/><stop offset=".64" stop-color="#f1f9f7"/><stop offset=".7" stop-color="#e0f1ed"/><stop offset=".76" stop-color="#c9e7df"/><stop offset=".83" stop-color="#aad9cd"/><stop offset=".88" stop-color="#84c9b7"/><stop offset=".94" stop-color="#57b59d"/><stop offset="1" stop-color="#249f7f"/><stop offset="1" stop-color="#209d7d"/></linearGradient></defs><g id="admin-favicon"><g id="cms"><g id="c_s"><rect id="bg" class="cls-2" x="2.85" y="63.95" width="318.29" height="196.11" rx="98.05" ry="98.05"/><path id="c_s-2" class="cls-4" d="M297.59,177.39c-11.39-22.42-43.04-20.44-58.54-37.75-14.55-30.89,34.74-28.54,53.43-21.92v-14.99c-20.29-4.79-46.51-6.85-62.86,6.89-13.74,11.11-14.57,33.87-.74,44.76,14.46,13.05,38.2,13.69,51.28,28.11,9.38,14.01-5.16,27.99-20.06,27.39-44.39,2.29-147.31,7.02-190.76,5.49-32.81.75.82-55.41-30.06-57.34,17.03-1.46,14.31-21.51,14.32-34.47-1.25-22.19,29.19-13.7,42.61-15.27v-9.5c-12.87,1.15-38.4-3.9-47.94,6.68-15.43,15.23,8.93,51.34-24.8,47.81v9.43c9.88-.97,20.03,2.77,19,14.05.81,11.04-3,34.7,6.38,41.97,9.48,11.65,77.7,4.13,91.46,6.14,5.34-.48,129.85,1.05,131.23-2.15,21.03-3.45,35.47-25.63,26.04-45.33Z"/></g><g id="m"><path id="bg-2" class="cls-3" d="M162.5,6.82h0c72.34,0,127.98,49.01,127.98,109.47l3,91.43c0,60.46-58.64,109.47-130.98,109.47h0c-72.34,0-130.98-49.01-130.98-109.47l3-91.43c0-60.46,55.64-109.47,127.98-109.47Z"/><path id="m-2" class="cls-1" d="M285.22,317.18h-27.79c-4.47,0-8.14-3.05-8.26-6.89l-6.42-195.6-1.21-29.52c-.32-7.89-13.17-9.49-16.1-2l-1.1,2.8-47.33,109.39c-1.2,2.78-4.29,4.62-7.75,4.62h-19.92c-3.46,0-6.56-1.85-7.76-4.64l-44.95-104.79c-.06-.13-.11-.26-.16-.4h0c-2.73-7.76-16.06-6.15-16.18,1.96l-.37,25.64-5.67,192.31c-.11,3.84-3.78,6.91-8.26,6.91h-26.23c-4.71,0-8.47-3.37-8.26-7.41L47.13,13.59c.2-3.79,3.84-6.77,8.26-6.77h40.2c3.49,0,6.61,1.88,7.78,4.7l43.02,103.17,6.61,16.52c2.57,6.42,13.17,6.37,15.66-.07l6.35-16.44L220.29,11.41c1.21-2.76,4.29-4.59,7.74-4.59h41.83c4.42,0,8.06,2.99,8.26,6.77l15.36,296.19c.21,4.04-3.55,7.41-8.26,7.41Z"/></g></g></g></svg>